<mxfile host="app.diagrams.net" modified="2021-11-26T12:27:50.057Z" agent="5.0 (Macintosh; Intel Mac OS X 10_15_7) AppleWebKit/537.36 (KHTML, like Gecko) Chrome/96.0.4664.55 Safari/537.36" etag="61YvbIJ3zGfErYdNGK3E" version="15.8.4" type="github">
  <diagram id="icxAoqO_NDGn48_VX5r9" name="Page-1">
    <mxGraphModel dx="1370" dy="801" grid="1" gridSize="10" guides="1" tooltips="1" connect="1" arrows="1" fold="1" page="1" pageScale="1" pageWidth="827" pageHeight="1169" math="0" shadow="0">
      <root>
        <mxCell id="0" />
        <mxCell id="1" parent="0" />
        <mxCell id="8lHs8mG3JFTHGzRHojZE-8" style="rounded=0;orthogonalLoop=1;jettySize=auto;html=1;exitX=1;exitY=0.5;exitDx=0;exitDy=0;entryX=0;entryY=0.5;entryDx=0;entryDy=0;entryPerimeter=0;" edge="1" parent="1" source="8lHs8mG3JFTHGzRHojZE-2" target="8lHs8mG3JFTHGzRHojZE-5">
          <mxGeometry relative="1" as="geometry" />
        </mxCell>
        <mxCell id="8lHs8mG3JFTHGzRHojZE-9" style="edgeStyle=none;rounded=0;orthogonalLoop=1;jettySize=auto;html=1;exitX=1;exitY=0.5;exitDx=0;exitDy=0;entryX=0;entryY=0.5;entryDx=0;entryDy=0;entryPerimeter=0;" edge="1" parent="1" source="8lHs8mG3JFTHGzRHojZE-2" target="8lHs8mG3JFTHGzRHojZE-6">
          <mxGeometry relative="1" as="geometry" />
        </mxCell>
        <mxCell id="8lHs8mG3JFTHGzRHojZE-10" style="edgeStyle=none;rounded=0;orthogonalLoop=1;jettySize=auto;html=1;exitX=1;exitY=0.5;exitDx=0;exitDy=0;entryX=0;entryY=0.5;entryDx=0;entryDy=0;entryPerimeter=0;" edge="1" parent="1" source="8lHs8mG3JFTHGzRHojZE-2" target="8lHs8mG3JFTHGzRHojZE-7">
          <mxGeometry relative="1" as="geometry" />
        </mxCell>
        <mxCell id="8lHs8mG3JFTHGzRHojZE-2" value="divide sub-datasets" style="rounded=0;whiteSpace=wrap;html=1;" vertex="1" parent="1">
          <mxGeometry x="280" y="300" width="120" height="80" as="geometry" />
        </mxCell>
        <mxCell id="8lHs8mG3JFTHGzRHojZE-4" value="" style="edgeStyle=orthogonalEdgeStyle;rounded=0;orthogonalLoop=1;jettySize=auto;html=1;" edge="1" parent="1" source="8lHs8mG3JFTHGzRHojZE-3" target="8lHs8mG3JFTHGzRHojZE-2">
          <mxGeometry relative="1" as="geometry" />
        </mxCell>
        <mxCell id="8lHs8mG3JFTHGzRHojZE-3" value="Dataset" style="shape=cylinder3;whiteSpace=wrap;html=1;boundedLbl=1;backgroundOutline=1;size=15;" vertex="1" parent="1">
          <mxGeometry x="170" y="300" width="60" height="80" as="geometry" />
        </mxCell>
        <mxCell id="8lHs8mG3JFTHGzRHojZE-14" style="edgeStyle=none;rounded=0;orthogonalLoop=1;jettySize=auto;html=1;exitX=1;exitY=0.5;exitDx=0;exitDy=0;exitPerimeter=0;" edge="1" parent="1" source="8lHs8mG3JFTHGzRHojZE-5" target="8lHs8mG3JFTHGzRHojZE-11">
          <mxGeometry relative="1" as="geometry" />
        </mxCell>
        <mxCell id="8lHs8mG3JFTHGzRHojZE-5" value="Sub-Dataset1" style="shape=cylinder3;whiteSpace=wrap;html=1;boundedLbl=1;backgroundOutline=1;size=15;" vertex="1" parent="1">
          <mxGeometry x="460" y="200" width="60" height="80" as="geometry" />
        </mxCell>
        <mxCell id="8lHs8mG3JFTHGzRHojZE-15" style="edgeStyle=none;rounded=0;orthogonalLoop=1;jettySize=auto;html=1;exitX=1;exitY=0.5;exitDx=0;exitDy=0;exitPerimeter=0;entryX=0;entryY=0.5;entryDx=0;entryDy=0;" edge="1" parent="1" source="8lHs8mG3JFTHGzRHojZE-6" target="8lHs8mG3JFTHGzRHojZE-12">
          <mxGeometry relative="1" as="geometry" />
        </mxCell>
        <mxCell id="8lHs8mG3JFTHGzRHojZE-6" value="Sub-Dataset2" style="shape=cylinder3;whiteSpace=wrap;html=1;boundedLbl=1;backgroundOutline=1;size=15;" vertex="1" parent="1">
          <mxGeometry x="460" y="300" width="60" height="80" as="geometry" />
        </mxCell>
        <mxCell id="8lHs8mG3JFTHGzRHojZE-16" style="edgeStyle=none;rounded=0;orthogonalLoop=1;jettySize=auto;html=1;exitX=1;exitY=0.5;exitDx=0;exitDy=0;exitPerimeter=0;entryX=0;entryY=0.5;entryDx=0;entryDy=0;" edge="1" parent="1" source="8lHs8mG3JFTHGzRHojZE-7" target="8lHs8mG3JFTHGzRHojZE-13">
          <mxGeometry relative="1" as="geometry" />
        </mxCell>
        <mxCell id="8lHs8mG3JFTHGzRHojZE-7" value="Sub-DatasetN" style="shape=cylinder3;whiteSpace=wrap;html=1;boundedLbl=1;backgroundOutline=1;size=15;" vertex="1" parent="1">
          <mxGeometry x="460" y="400" width="60" height="80" as="geometry" />
        </mxCell>
        <mxCell id="8lHs8mG3JFTHGzRHojZE-18" style="edgeStyle=none;rounded=0;orthogonalLoop=1;jettySize=auto;html=1;exitX=1;exitY=0.5;exitDx=0;exitDy=0;entryX=0;entryY=0.5;entryDx=0;entryDy=0;" edge="1" parent="1" source="8lHs8mG3JFTHGzRHojZE-11" target="8lHs8mG3JFTHGzRHojZE-17">
          <mxGeometry relative="1" as="geometry" />
        </mxCell>
        <mxCell id="8lHs8mG3JFTHGzRHojZE-11" value="GFNLF" style="rounded=0;whiteSpace=wrap;html=1;" vertex="1" parent="1">
          <mxGeometry x="580" y="215" width="120" height="50" as="geometry" />
        </mxCell>
        <mxCell id="8lHs8mG3JFTHGzRHojZE-19" style="edgeStyle=none;rounded=0;orthogonalLoop=1;jettySize=auto;html=1;exitX=1;exitY=0.5;exitDx=0;exitDy=0;entryX=0;entryY=0.5;entryDx=0;entryDy=0;" edge="1" parent="1" source="8lHs8mG3JFTHGzRHojZE-12" target="8lHs8mG3JFTHGzRHojZE-17">
          <mxGeometry relative="1" as="geometry" />
        </mxCell>
        <mxCell id="8lHs8mG3JFTHGzRHojZE-12" value="GFNLF" style="rounded=0;whiteSpace=wrap;html=1;" vertex="1" parent="1">
          <mxGeometry x="580" y="315" width="120" height="50" as="geometry" />
        </mxCell>
        <mxCell id="8lHs8mG3JFTHGzRHojZE-20" style="edgeStyle=none;rounded=0;orthogonalLoop=1;jettySize=auto;html=1;exitX=1;exitY=0.5;exitDx=0;exitDy=0;entryX=0;entryY=0.5;entryDx=0;entryDy=0;" edge="1" parent="1" source="8lHs8mG3JFTHGzRHojZE-13" target="8lHs8mG3JFTHGzRHojZE-17">
          <mxGeometry relative="1" as="geometry">
            <mxPoint x="770" y="340" as="targetPoint" />
          </mxGeometry>
        </mxCell>
        <mxCell id="8lHs8mG3JFTHGzRHojZE-13" value="GFNLF" style="rounded=0;whiteSpace=wrap;html=1;" vertex="1" parent="1">
          <mxGeometry x="580" y="415" width="120" height="50" as="geometry" />
        </mxCell>
        <mxCell id="8lHs8mG3JFTHGzRHojZE-17" value="Output" style="rounded=0;whiteSpace=wrap;html=1;" vertex="1" parent="1">
          <mxGeometry x="760" y="315" width="120" height="50" as="geometry" />
        </mxCell>
      </root>
    </mxGraphModel>
  </diagram>
</mxfile>
